<svg width="12" height="14" viewBox="0 0 12 14" fill="none" xmlns="http://www.w3.org/2000/svg">
<path opacity="0.5" d="M3.04281 4.91667H9.29281C10.4386 4.91667 11.3761 5.85417 11.3761 7V11.1667C11.3761 12.3125 10.4386 13.25 9.29281 13.25H3.04281C1.89697 13.25 0.959473 12.3125 0.959473 11.1667V7C0.959473 5.85417 1.89697 4.91667 3.04281 4.91667ZM5.12614 3.875C5.12614 3.25 5.54281 2.83333 6.16781 2.83333C6.79281 2.83333 7.20947 3.25 7.20947 3.875V4.91667H9.29281V3.875C9.29281 2.10417 7.93864 0.75 6.16781 0.75C4.39697 0.75 3.04281 2.10417 3.04281 3.875V4.91667H5.12614V3.875Z" fill="white"/>
</svg>
