<svg width="42" height="48" viewBox="0 0 42 48" fill="none" xmlns="http://www.w3.org/2000/svg">
<path d="M20.9999 47.9995C20.4979 47.9993 20.0101 47.8333 19.612 47.5275C19.612 47.5275 17.8702 46.2152 13.0552 43.5764C5.68633 39.5403 2.29695 34.6969 1.35756 26.8608C0.630587 20.7948 0.158529 8.12479 0.139647 7.58665C0.12623 7.26291 0.182112 6.94004 0.303554 6.63964C0.424996 6.33924 0.609196 6.06824 0.843829 5.84478C1.07846 5.62132 1.35812 5.45055 1.66408 5.3439C1.97004 5.23725 2.29525 5.19717 2.61795 5.22636C2.66516 5.22636 7.59345 5.64177 11.8325 4.45218C14.6245 3.647 17.2375 2.31726 19.5318 0.5341C19.9432 0.189094 20.463 0 20.9999 0C21.5368 0 22.0566 0.189094 22.468 0.5341C24.76 2.32851 27.373 3.6695 30.1673 4.48523C34.4158 5.67481 39.3346 5.2594 39.3866 5.2594C39.7091 5.23015 40.0341 5.27021 40.3398 5.3769C40.6455 5.48359 40.9249 5.65444 41.1592 5.87798C41.3935 6.10153 41.5772 6.37259 41.6981 6.673C41.819 6.9734 41.8743 7.29618 41.8602 7.61969C41.8602 8.15784 41.3881 20.8373 40.6422 26.8938C39.6981 34.73 36.3135 39.5733 28.9494 43.6047C24.1344 46.2435 22.4019 47.5511 22.383 47.5653C21.9817 47.8569 21.496 48.0095 20.9999 47.9995ZM4.7847 9.86197C4.94992 13.9264 5.36061 22.008 5.89404 26.3226C6.55492 31.8363 8.29681 35.7638 15.255 39.5827C18.0873 41.1264 19.9094 42.2499 21.0188 42.9721C22.1281 42.2499 23.9644 41.1264 26.7826 39.5827C33.7455 35.7732 35.4638 31.8363 36.1058 26.3226C36.6392 22.008 37.0499 13.9264 37.2151 9.86197C34.4226 9.88829 31.6387 9.54705 28.9352 8.84704C26.1082 8.03272 23.4294 6.77218 20.9999 5.11306C18.5704 6.77218 15.8916 8.03272 13.0646 8.84704C10.3611 9.54705 7.57724 9.88829 4.7847 9.86197Z" fill="#3375BB"/>
</svg>
