<svg width="32" height="20" viewBox="0 0 32 20" fill="none" xmlns="http://www.w3.org/2000/svg">
<path d="M6.9418 4.33981C11.9418 -0.543689 20.0583 -0.543689 25.0583 4.33981L25.6603 4.93204C25.9127 5.17476 25.9127 5.57282 25.6603 5.81553L23.602 7.82524C23.4758 7.95146 23.2719 7.95146 23.1457 7.82524L22.3204 7.01942C18.8253 3.61165 13.1748 3.61165 9.67967 7.01942L8.79617 7.8835C8.66996 8.00971 8.46608 8.00971 8.33986 7.8835L6.28161 5.87379C6.02918 5.63107 6.02918 5.23301 6.28161 4.99029L6.9418 4.33981ZM29.3204 8.49515L31.1554 10.2816C31.4078 10.5243 31.4078 10.9223 31.1554 11.165L22.8933 19.233C22.6408 19.4757 22.2331 19.4757 21.9903 19.233L16.1263 13.5049C16.068 13.4466 15.9612 13.4466 15.903 13.5049L10.0389 19.233C9.78646 19.4757 9.3787 19.4757 9.13598 19.233L0.844716 11.165C0.592289 10.9223 0.592289 10.5243 0.844716 10.2816L2.67967 8.49515C2.93209 8.25243 3.33986 8.25243 3.58258 8.49515L9.44666 14.2233C9.50491 14.2816 9.61171 14.2816 9.66996 14.2233L15.534 8.49515C15.7865 8.25243 16.1942 8.25243 16.4369 8.49515L22.301 14.2233C22.3593 14.2816 22.4661 14.2816 22.5243 14.2233L28.3884 8.49515C28.6602 8.25243 29.068 8.25243 29.3204 8.49515Z" fill="white"/>
</svg>
